# xmcd
#
# Track frame offsets:
# 150
# 19082
# 35772
# 52484
# 72402
# 85886
# 103252
# 125756
# 143595
# 156953
# 176545
# 193590
#
# Disc length: 2924 seconds
#
#
# Revision: 0
# Processed by: cddbd v1.5.2PL0 Copyright (c) Steve Scherf et al.
# Submitted via: FreeRIP 2.941 
#
DISCID=b30b6a0c
DTITLE=Lost Immigrants - Waiting on Judgement Day
DYEAR=1900
DGENRE=Country
TTITLE0=Judgement Day (Radio Edit)
TTITLE1=Dixie Queen
TTITLE2=Memories and Rust
TTITLE3=Evangeline
TTITLE4=Last Mistake
TTITLE5=Maybe December
TTITLE6=Ghosts You Can See
TTITLE7=Let's Drive
TTITLE8=Weather of You
TTITLE9=Circle in my Hand
TTITLE10=Something Better
TTITLE11=Judgement Day
EXTD=
EXTT0=
EXTT1=
EXTT2=
EXTT3=
EXTT4=
EXTT5=
EXTT6=
EXTT7=
EXTT8=
EXTT9=
EXTT10=
EXTT11=
PLAYORDER=
